<svg id="visual" viewBox="0 0 1920 100" width="1920" height="100" xmlns="http://www.w3.org/2000/svg" xmlns:xlink="http://www.w3.org/1999/xlink" version="1.1"><path d="M0 74L62 62L124 66L186 67L248 67L310 82L372 67L434 70L495 76L557 82L619 73L681 73L743 62L805 63L867 70L929 64L991 85L1053 74L1115 86L1177 63L1239 73L1301 72L1363 64L1425 73L1486 73L1548 72L1610 82L1672 73L1734 63L1796 84L1858 64L1920 74" fill="none" stroke-linecap="square" stroke-linejoin="bevel" stroke="#0066FF" stroke-width="40"></path></svg>